<svg viewBox="0 0 800 400" xmlns="http://www.w3.org/2000/svg">
  <!-- Background -->
  <rect width="800" height="400" fill="#f8f9fa"/>
  
  <!-- Title -->
  <text x="400" y="30" text-anchor="middle" font-family="Arial, sans-serif" font-size="18" font-weight="bold" fill="#333">
    RAPID Citation Trends (2011-2025)
  </text>
  
  <!-- Axes -->
  <line x1="80" y1="50" x2="80" y2="320" stroke="#333" stroke-width="2"/>
  <line x1="80" y1="320" x2="750" y2="320" stroke="#333" stroke-width="2"/>
  
  <!-- Y-axis labels -->
  <text x="70" y="325" text-anchor="end" font-family="Arial, sans-serif" font-size="12" fill="#666">0</text>
  <text x="70" y="275" text-anchor="end" font-family="Arial, sans-serif" font-size="12" fill="#666">10</text>
  <text x="70" y="225" text-anchor="end" font-family="Arial, sans-serif" font-size="12" fill="#666">20</text>
  <text x="70" y="175" text-anchor="end" font-family="Arial, sans-serif" font-size="12" fill="#666">30</text>
  <text x="70" y="125" text-anchor="end" font-family="Arial, sans-serif" font-size="12" fill="#666">40</text>
  
  <!-- Y-axis title -->
  <text x="25" y="185" text-anchor="middle" font-family="Arial, sans-serif" font-size="14" fill="#333" transform="rotate(-90, 25, 185)">
    Citations
  </text>
  
  <!-- Bars -->
  <rect x="100" y="304" width="35" height="16" fill="#3498db"/>
  <rect x="140" y="270" width="35" height="50" fill="#3498db"/>
  <rect x="180" y="250" width="35" height="70" fill="#3498db"/>
  <rect x="220" y="230" width="35" height="90" fill="#3498db"/>
  <rect x="260" y="200" width="35" height="120" fill="#3498db"/>
  <rect x="300" y="180" width="35" height="140" fill="#3498db"/>
  <rect x="340" y="150" width="35" height="170" fill="#3498db"/>
  <rect x="380" y="120" width="35" height="200" fill="#3498db"/>
  <rect x="420" y="90" width="35" height="230" fill="#3498db"/>
  <rect x="460" y="60" width="35" height="260" fill="#3498db"/>
  <rect x="500" y="30" width="35" height="290" fill="#3498db"/>
  <rect x="540" y="40" width="35" height="280" fill="#3498db"/>
  <rect x="580" y="10" width="35" height="310" fill="#3498db"/>
  <rect x="620" y="20" width="35" height="300" fill="#3498db"/>
  <rect x="660" y="200" width="35" height="120" fill="#3498db"/>
  
  <!-- X-axis labels -->
  <text x="117" y="340" text-anchor="middle" font-family="Arial, sans-serif" font-size="10" fill="#666">2011</text>
  <text x="157" y="340" text-anchor="middle" font-family="Arial, sans-serif" font-size="10" fill="#666">2012</text>
  <text x="197" y="340" text-anchor="middle" font-family="Arial, sans-serif" font-size="10" fill="#666">2013</text>
  <text x="237" y="340" text-anchor="middle" font-family="Arial, sans-serif" font-size="10" fill="#666">2014</text>
  <text x="277" y="340" text-anchor="middle" font-family="Arial, sans-serif" font-size="10" fill="#666">2015</text>
  <text x="317" y="340" text-anchor="middle" font-family="Arial, sans-serif" font-size="10" fill="#666">2016</text>
  <text x="357" y="340" text-anchor="middle" font-family="Arial, sans-serif" font-size="10" fill="#666">2017</text>
  <text x="397" y="340" text-anchor="middle" font-family="Arial, sans-serif" font-size="10" fill="#666">2018</text>
  <text x="437" y="340" text-anchor="middle" font-family="Arial, sans-serif" font-size="10" fill="#666">2019</text>
  <text x="477" y="340" text-anchor="middle" font-family="Arial, sans-serif" font-size="10" fill="#666">2020</text>
  <text x="517" y="340" text-anchor="middle" font-family="Arial, sans-serif" font-size="10" fill="#666">2021</text>
  <text x="557" y="340" text-anchor="middle" font-family="Arial, sans-serif" font-size="10" fill="#666">2022</text>
  <text x="597" y="340" text-anchor="middle" font-family="Arial, sans-serif" font-size="10" fill="#666">2023</text>
  <text x="637" y="340" text-anchor="middle" font-family="Arial, sans-serif" font-size="10" fill="#666">2024</text>
  <text x="677" y="340" text-anchor="middle" font-family="Arial, sans-serif" font-size="10" fill="#666">2025</text>
  
  <!-- X-axis title -->
  <text x="415" y="370" text-anchor="middle" font-family="Arial, sans-serif" font-size="14" fill="#333">
    Year
  </text>
  
  <!-- Grid lines -->
  <line x1="80" y1="270" x2="750" y2="270" stroke="#e0e0e0" stroke-width="1"/>
  <line x1="80" y1="220" x2="750" y2="220" stroke="#e0e0e0" stroke-width="1"/>
  <line x1="80" y1="170" x2="750" y2="170" stroke="#e0e0e0" stroke-width="1"/>
  <line x1="80" y1="120" x2="750" y2="120" stroke="#e0e0e0" stroke-width="1"/>
</svg>